<svg xmlns="http://www.w3.org/2000/svg" viewBox="0 0 64 64" fill="#2b2b2b">
  <!-- Circular rotation arrows -->
  <path d="M32 6 C18.7 6 8 16.7 8 30 H2 L11 41 L20 30 H14 C14 20.1 22.1 12 32 12 C36 12 39.7 13.3 42.6 15.5 L46.9 11.2 C42.8 8 37.6 6 32 6 Z"/>
  <path d="M32 58 C45.3 58 56 47.3 56 34 H62 L53 23 L44 34 H50 C50 43.9 41.9 52 32 52 C28 52 24.3 50.7 21.4 48.5 L17.1 52.8 C21.2 56 26.4 58 32 58 Z"/>
  <!-- Person head -->
  <circle cx="32" cy="27" r="7.5"/>
  <!-- Person shoulders -->
  <path d="M20 44 C20 37.4 25.4 32 32 32 C38.6 32 44 37.4 44 44 C44 45.7 42.7 47 41 47 H23 C21.3 47 20 45.7 20 44 Z"/>
</svg>
